<mxfile host="app.diagrams.net" modified="2023-11-17T09:52:37.386Z" agent="Mozilla/5.0 (Windows NT 10.0; Win64; x64) AppleWebKit/537.36 (KHTML, like Gecko) Chrome/119.0.0.0 Safari/537.36" version="22.1.2" etag="G21hgg0wLoO1aEL9E5dN" type="github">
  <diagram name="Page-1" id="npTTlI109EYBto2RsMeF">
    <mxGraphModel>
      <root>
        <mxCell id="0" />
        <mxCell id="1" parent="0" />
      </root>
    </mxGraphModel>
  </diagram>
</mxfile>
